<svg id="Group_24" data-name="Group 24" xmlns="http://www.w3.org/2000/svg" viewBox="0 0 116.218 117.14">
  <defs>
    <style>
      .cls-1 {
        fill: #418fde;
      }

      .cls-2 {
        fill: #fff;
      }
    </style>
  </defs>
  <ellipse id="Ellipse_2" data-name="Ellipse 2" class="cls-1" cx="58.109" cy="58.57" rx="58.109" ry="58.57"/>
  <g id="Group_14" data-name="Group 14" transform="translate(11.534 42.593)">
    <path id="Path_5" data-name="Path 5" class="cls-2" d="M17.872.039H9.025L0,33.705H7.476L11.1,20.61l-.4,1.725c5.043.442,16.1.531,17.7-11.768C29.994-1.332,17.872.039,17.872.039Zm.841,14.068c-2.522,2.389-6.149,1.548-6.149,1.548l1.017-3.76,1.371-5c.531-.044,4.158-.442,5.176.4,1.106.885.31,5.176-1.416,6.813Z" transform="translate(0 0.009)"/>
    <path id="Path_6" data-name="Path 6" class="cls-2" d="M85.089,2.717A4.961,4.961,0,0,0,82.567.682C76.153-1.4,70.888,3.513,67.216,8.246A30.076,30.076,0,0,0,61.2,25.411c.177,3.672,1.062,7.786,4.822,9.246C72.171,36.205,76.684,30.985,80,26.65c.354-.619.973-1.15.973-1.858-.265-.133-.487-.354-.8-.354a23.273,23.273,0,0,1-2.3,2.964c-2.123,2.079-4.822,3.716-7.919,3.008-3.406-1.548-3.539-5.53-3.229-8.98a18.483,18.483,0,0,1,.885-3.893l2.3-.664c5.087-1.681,11.1-2.035,14.51-7.167,1.15-1.947,2.079-4.866.664-6.99ZM73.764,14.042c-6.945,2.256-5.22,1.327-5.22,1.327S73.852-.469,79.249,1.389c5.486,1.858,1.5,10.4-5.486,12.652Z" transform="translate(-34.126 -0.103)"/>
    <path id="Path_7" data-name="Path 7" class="cls-2" d="M120.922.233,143.13.1l-1.946,7.255-7.255.133L126.54,33.766H118.4l7.122-26.322h-6.68Z" transform="translate(-66.021 -0.052)"/>
    <path id="Path_8" data-name="Path 8" class="cls-2" d="M168.491.188,152.3,33.722h8.361l2.566-5.53h7.521v5.486l7.344-.044V.1l-9.6.088Zm-2.256,21.367,4.424-9.6.044-.133v9.733Z" transform="translate(-84.924 -0.052)"/>
  </g>
</svg>
